<?xml version="1.0" encoding="UTF-8"?>
<svg width="61px" height="51px" viewBox="0 0 61 51" version="1.1" xmlns="http://www.w3.org/2000/svg" xmlns:xlink="http://www.w3.org/1999/xlink">
    <title>group</title>
    <g id="Page-1" stroke="none" stroke-width="1" fill="none" fill-rule="evenodd">
        <g id="group" fill-rule="nonzero">
            <path d="M28.749,1.806 L0.829,48.046 C0.35,48.84 0.605,49.873 1.399,50.352 C1.663,50.511 1.964,50.594 2.271,50.594 L49.311,50.491 C49.775,50.49 50.151,50.113 50.150002,49.649 C50.150002,49.492 50.105,49.339 50.021,49.205 L41.057,34.897 L34.909,45.848 L8.335,45.99 L33.167,4.475 L31.64,1.834 C31.176,1.031 30.148,0.756 29.345,1.22 C29.1,1.362 28.895,1.563 28.748,1.806 L28.749,1.806 Z" id="Path" fill="#2A6483"></path>
            <polygon id="Path" fill="#9FBDCD" points="35.675 8.38 15.349 42.386 21.566 42.386 38.585 13.702"></polygon>
            <path d="M25.532,42.386 L32.106,42.386 L40.822,27.886 L54.834,49.836 C55.139,50.313 55.664,50.604 56.23,50.611 L58.79,50.6410999 C59.717,50.651 60.478,49.909 60.4890726,48.981 C60.492,48.656 60.402,48.337 60.228,48.063 L41.014,17.73 L25.955,42.35" id="Path" fill="#F96673"></path>
        </g>
    </g>
</svg>